<mxfile host="app.diagrams.net" modified="2022-11-20T18:00:52.683Z" agent="5.0 (Windows NT 10.0; Win64; x64) AppleWebKit/537.36 (KHTML, like Gecko) Chrome/107.0.0.0 Safari/537.36" etag="ez1YaQAZMcqIfuxNTNIa" version="20.5.3" type="github">
  <diagram name="Page-1" id="b520641d-4fe3-3701-9064-5fc419738815">
    <mxGraphModel dx="1038" dy="539" grid="0" gridSize="10" guides="1" tooltips="1" connect="1" arrows="1" fold="1" page="1" pageScale="1" pageWidth="1100" pageHeight="850" background="none" math="0" shadow="0">
      <root>
        <mxCell id="0" />
        <mxCell id="1" parent="0" />
        <mxCell id="EhshdQfCyrl62s5Rfig4-1" value="Nhà cung cấp." style="rounded=0;whiteSpace=wrap;html=1;" vertex="1" parent="1">
          <mxGeometry x="920" y="270" width="120" height="60" as="geometry" />
        </mxCell>
        <mxCell id="EhshdQfCyrl62s5Rfig4-2" value="" style="endArrow=classic;html=1;rounded=0;exitX=0.5;exitY=0;exitDx=0;exitDy=0;entryX=0;entryY=0.5;entryDx=0;entryDy=0;" edge="1" parent="1" source="21ea969265ad0168-26" target="EhshdQfCyrl62s5Rfig4-1">
          <mxGeometry relative="1" as="geometry">
            <mxPoint x="520" y="480" as="sourcePoint" />
            <mxPoint x="620" y="480" as="targetPoint" />
            <Array as="points">
              <mxPoint x="780" y="300" />
            </Array>
          </mxGeometry>
        </mxCell>
        <mxCell id="EhshdQfCyrl62s5Rfig4-3" value="Yêu cầu nhập hàng" style="edgeLabel;resizable=0;html=1;align=center;verticalAlign=middle;" connectable="0" vertex="1" parent="EhshdQfCyrl62s5Rfig4-2">
          <mxGeometry relative="1" as="geometry" />
        </mxCell>
        <mxCell id="EhshdQfCyrl62s5Rfig4-4" value="" style="endArrow=classic;html=1;rounded=0;entryX=1;entryY=0.5;entryDx=0;entryDy=0;exitX=0.5;exitY=1;exitDx=0;exitDy=0;" edge="1" parent="1" source="EhshdQfCyrl62s5Rfig4-1" target="21ea969265ad0168-27">
          <mxGeometry relative="1" as="geometry">
            <mxPoint x="520" y="480" as="sourcePoint" />
            <mxPoint x="620" y="480" as="targetPoint" />
            <Array as="points">
              <mxPoint x="980" y="400" />
            </Array>
          </mxGeometry>
        </mxCell>
        <mxCell id="EhshdQfCyrl62s5Rfig4-5" value="Hóa đơn nhập" style="edgeLabel;resizable=0;html=1;align=center;verticalAlign=middle;" connectable="0" vertex="1" parent="EhshdQfCyrl62s5Rfig4-4">
          <mxGeometry relative="1" as="geometry" />
        </mxCell>
        <mxCell id="EhshdQfCyrl62s5Rfig4-6" value="2.0" style="swimlane;html=1;fontStyle=0;childLayout=stackLayout;horizontal=1;startSize=30;fillColor=#e0e0e0;horizontalStack=0;resizeParent=1;resizeLast=0;collapsible=1;marginBottom=0;swimlaneFillColor=#ffffff;align=center;rounded=1;shadow=0;comic=0;labelBackgroundColor=none;strokeWidth=1;fontFamily=Verdana;fontSize=12" vertex="1" parent="1">
          <mxGeometry x="300" y="360" width="160" height="60" as="geometry" />
        </mxCell>
        <mxCell id="EhshdQfCyrl62s5Rfig4-7" value="Quản lý bán hàng" style="text;html=1;strokeColor=none;fillColor=none;spacingLeft=4;spacingRight=4;whiteSpace=wrap;overflow=hidden;rotatable=0;points=[[0,0.5],[1,0.5]];portConstraint=eastwest;align=center;" vertex="1" parent="EhshdQfCyrl62s5Rfig4-6">
          <mxGeometry y="30" width="160" height="26" as="geometry" />
        </mxCell>
        <mxCell id="EhshdQfCyrl62s5Rfig4-8" value="" style="endArrow=classic;html=1;rounded=0;entryX=0;entryY=0.5;entryDx=0;entryDy=0;" edge="1" parent="1" target="21ea969265ad0168-27">
          <mxGeometry relative="1" as="geometry">
            <mxPoint x="460" y="399" as="sourcePoint" />
            <mxPoint x="620" y="280" as="targetPoint" />
          </mxGeometry>
        </mxCell>
        <mxCell id="EhshdQfCyrl62s5Rfig4-9" value="Thông tin sản phẩm yêu cầu" style="edgeLabel;resizable=0;html=1;align=center;verticalAlign=middle;" connectable="0" vertex="1" parent="EhshdQfCyrl62s5Rfig4-8">
          <mxGeometry relative="1" as="geometry" />
        </mxCell>
        <mxCell id="EhshdQfCyrl62s5Rfig4-11" value="" style="endArrow=classic;html=1;rounded=0;exitX=0.25;exitY=1;exitDx=0;exitDy=0;entryX=0.5;entryY=1;entryDx=0;entryDy=0;" edge="1" parent="1" source="21ea969265ad0168-26" target="EhshdQfCyrl62s5Rfig4-6">
          <mxGeometry relative="1" as="geometry">
            <mxPoint x="520" y="280" as="sourcePoint" />
            <mxPoint x="620" y="280" as="targetPoint" />
            <Array as="points">
              <mxPoint x="740" y="460" />
              <mxPoint x="560" y="460" />
              <mxPoint x="380" y="460" />
            </Array>
          </mxGeometry>
        </mxCell>
        <mxCell id="EhshdQfCyrl62s5Rfig4-12" value="Thông tin hàng hóa" style="edgeLabel;resizable=0;html=1;align=center;verticalAlign=middle;" connectable="0" vertex="1" parent="EhshdQfCyrl62s5Rfig4-11">
          <mxGeometry relative="1" as="geometry" />
        </mxCell>
        <mxCell id="EhshdQfCyrl62s5Rfig4-13" value="Khách hàng" style="rounded=0;whiteSpace=wrap;html=1;" vertex="1" parent="1">
          <mxGeometry x="77.5" y="270" width="120" height="60" as="geometry" />
        </mxCell>
        <mxCell id="EhshdQfCyrl62s5Rfig4-14" value="" style="endArrow=classic;html=1;rounded=0;exitX=1;exitY=0.5;exitDx=0;exitDy=0;entryX=0.5;entryY=0;entryDx=0;entryDy=0;" edge="1" parent="1" source="EhshdQfCyrl62s5Rfig4-13" target="EhshdQfCyrl62s5Rfig4-6">
          <mxGeometry relative="1" as="geometry">
            <mxPoint x="520" y="280" as="sourcePoint" />
            <mxPoint x="620" y="280" as="targetPoint" />
            <Array as="points">
              <mxPoint x="380" y="300" />
            </Array>
          </mxGeometry>
        </mxCell>
        <mxCell id="EhshdQfCyrl62s5Rfig4-15" value="Yêu cầu mua hàng" style="edgeLabel;resizable=0;html=1;align=center;verticalAlign=middle;" connectable="0" vertex="1" parent="EhshdQfCyrl62s5Rfig4-14">
          <mxGeometry relative="1" as="geometry" />
        </mxCell>
        <mxCell id="EhshdQfCyrl62s5Rfig4-16" value="" style="endArrow=classic;html=1;rounded=0;exitX=0.5;exitY=1;exitDx=0;exitDy=0;entryX=0.25;entryY=1;entryDx=0;entryDy=0;" edge="1" parent="1" source="EhshdQfCyrl62s5Rfig4-13" target="EhshdQfCyrl62s5Rfig4-6">
          <mxGeometry relative="1" as="geometry">
            <mxPoint x="70" y="340" as="sourcePoint" />
            <mxPoint x="620" y="280" as="targetPoint" />
            <Array as="points">
              <mxPoint x="138" y="440" />
              <mxPoint x="340" y="440" />
            </Array>
          </mxGeometry>
        </mxCell>
        <mxCell id="EhshdQfCyrl62s5Rfig4-17" value="Thông tin khách hàng" style="edgeLabel;resizable=0;html=1;align=center;verticalAlign=middle;" connectable="0" vertex="1" parent="EhshdQfCyrl62s5Rfig4-16">
          <mxGeometry relative="1" as="geometry" />
        </mxCell>
        <mxCell id="EhshdQfCyrl62s5Rfig4-18" value="" style="endArrow=classic;html=1;rounded=0;entryX=0.75;entryY=1;entryDx=0;entryDy=0;" edge="1" parent="1" target="EhshdQfCyrl62s5Rfig4-13">
          <mxGeometry relative="1" as="geometry">
            <mxPoint x="300" y="400" as="sourcePoint" />
            <mxPoint x="300" y="400" as="targetPoint" />
            <Array as="points">
              <mxPoint x="168" y="400" />
            </Array>
          </mxGeometry>
        </mxCell>
        <mxCell id="EhshdQfCyrl62s5Rfig4-19" value="Hóa đơn" style="edgeLabel;resizable=0;html=1;align=center;verticalAlign=middle;" connectable="0" vertex="1" parent="EhshdQfCyrl62s5Rfig4-18">
          <mxGeometry relative="1" as="geometry" />
        </mxCell>
        <mxCell id="EhshdQfCyrl62s5Rfig4-20" value="4.0" style="swimlane;html=1;fontStyle=0;childLayout=stackLayout;horizontal=1;startSize=30;fillColor=#e0e0e0;horizontalStack=0;resizeParent=1;resizeLast=0;collapsible=1;marginBottom=0;swimlaneFillColor=#ffffff;align=center;rounded=1;shadow=0;comic=0;labelBackgroundColor=none;strokeWidth=1;fontFamily=Verdana;fontSize=12" vertex="1" parent="1">
          <mxGeometry x="480" y="160" width="160" height="60" as="geometry" />
        </mxCell>
        <mxCell id="EhshdQfCyrl62s5Rfig4-21" value="Quản lý nhân viên" style="text;html=1;strokeColor=none;fillColor=none;spacingLeft=4;spacingRight=4;whiteSpace=wrap;overflow=hidden;rotatable=0;points=[[0,0.5],[1,0.5]];portConstraint=eastwest;align=center;" vertex="1" parent="EhshdQfCyrl62s5Rfig4-20">
          <mxGeometry y="30" width="160" height="26" as="geometry" />
        </mxCell>
        <mxCell id="EhshdQfCyrl62s5Rfig4-22" value="" style="endArrow=classic;html=1;rounded=0;entryX=0.75;entryY=0;entryDx=0;entryDy=0;exitX=0;exitY=0.5;exitDx=0;exitDy=0;" edge="1" parent="1" source="EhshdQfCyrl62s5Rfig4-21" target="EhshdQfCyrl62s5Rfig4-6">
          <mxGeometry relative="1" as="geometry">
            <mxPoint x="520" y="280" as="sourcePoint" />
            <mxPoint x="620" y="280" as="targetPoint" />
            <Array as="points">
              <mxPoint x="420" y="203" />
              <mxPoint x="420" y="240" />
            </Array>
          </mxGeometry>
        </mxCell>
        <mxCell id="EhshdQfCyrl62s5Rfig4-23" value="Thông tin nhân viên bán" style="edgeLabel;resizable=0;html=1;align=center;verticalAlign=middle;" connectable="0" vertex="1" parent="EhshdQfCyrl62s5Rfig4-22">
          <mxGeometry relative="1" as="geometry" />
        </mxCell>
        <mxCell id="EhshdQfCyrl62s5Rfig4-24" value="5.0" style="swimlane;html=1;fontStyle=0;childLayout=stackLayout;horizontal=1;startSize=30;fillColor=#e0e0e0;horizontalStack=0;resizeParent=1;resizeLast=0;collapsible=1;marginBottom=0;swimlaneFillColor=#ffffff;align=center;rounded=1;shadow=0;comic=0;labelBackgroundColor=none;strokeWidth=1;fontFamily=Verdana;fontSize=12" vertex="1" parent="1">
          <mxGeometry x="760" y="60" width="160" height="60" as="geometry" />
        </mxCell>
        <mxCell id="EhshdQfCyrl62s5Rfig4-25" value="Báo cáo." style="text;html=1;strokeColor=none;fillColor=none;spacingLeft=4;spacingRight=4;whiteSpace=wrap;overflow=hidden;rotatable=0;points=[[0,0.5],[1,0.5]];portConstraint=eastwest;align=center;" vertex="1" parent="EhshdQfCyrl62s5Rfig4-24">
          <mxGeometry y="30" width="160" height="26" as="geometry" />
        </mxCell>
        <mxCell id="EhshdQfCyrl62s5Rfig4-26" value="Bộ phận quản lý." style="rounded=0;whiteSpace=wrap;html=1;" vertex="1" parent="1">
          <mxGeometry x="520" y="20" width="120" height="60" as="geometry" />
        </mxCell>
        <mxCell id="EhshdQfCyrl62s5Rfig4-27" value="" style="endArrow=classic;html=1;rounded=0;exitX=1.003;exitY=-0.023;exitDx=0;exitDy=0;exitPerimeter=0;" edge="1" parent="1" source="EhshdQfCyrl62s5Rfig4-25">
          <mxGeometry relative="1" as="geometry">
            <mxPoint x="520" y="280" as="sourcePoint" />
            <mxPoint x="640" y="40" as="targetPoint" />
            <Array as="points">
              <mxPoint x="990" y="89" />
              <mxPoint x="990" y="40" />
            </Array>
          </mxGeometry>
        </mxCell>
        <mxCell id="EhshdQfCyrl62s5Rfig4-28" value="Báo cáo" style="edgeLabel;resizable=0;html=1;align=center;verticalAlign=middle;" connectable="0" vertex="1" parent="EhshdQfCyrl62s5Rfig4-27">
          <mxGeometry relative="1" as="geometry" />
        </mxCell>
        <mxCell id="EhshdQfCyrl62s5Rfig4-29" value="" style="endArrow=classic;html=1;rounded=0;" edge="1" parent="1">
          <mxGeometry relative="1" as="geometry">
            <mxPoint x="640" y="190" as="sourcePoint" />
            <mxPoint x="760" y="100" as="targetPoint" />
            <Array as="points">
              <mxPoint x="640" y="100" />
            </Array>
          </mxGeometry>
        </mxCell>
        <mxCell id="EhshdQfCyrl62s5Rfig4-30" value="Thông tin nhân viên báo cáo" style="edgeLabel;resizable=0;html=1;align=center;verticalAlign=middle;" connectable="0" vertex="1" parent="EhshdQfCyrl62s5Rfig4-29">
          <mxGeometry relative="1" as="geometry" />
        </mxCell>
        <mxCell id="EhshdQfCyrl62s5Rfig4-31" value="" style="endArrow=classic;html=1;rounded=0;entryX=0.25;entryY=0;entryDx=0;entryDy=0;exitX=0.5;exitY=1;exitDx=0;exitDy=0;" edge="1" parent="1" source="EhshdQfCyrl62s5Rfig4-20" target="21ea969265ad0168-26">
          <mxGeometry relative="1" as="geometry">
            <mxPoint x="520" y="280" as="sourcePoint" />
            <mxPoint x="620" y="280" as="targetPoint" />
            <Array as="points">
              <mxPoint x="560" y="280" />
              <mxPoint x="740" y="280" />
            </Array>
          </mxGeometry>
        </mxCell>
        <mxCell id="EhshdQfCyrl62s5Rfig4-32" value="Thông tin nhân viên kho" style="edgeLabel;resizable=0;html=1;align=center;verticalAlign=middle;" connectable="0" vertex="1" parent="EhshdQfCyrl62s5Rfig4-31">
          <mxGeometry relative="1" as="geometry" />
        </mxCell>
        <mxCell id="EhshdQfCyrl62s5Rfig4-33" value="3.0" style="swimlane;html=1;fontStyle=0;childLayout=stackLayout;horizontal=1;startSize=30;fillColor=#e0e0e0;horizontalStack=0;resizeParent=1;resizeLast=0;collapsible=1;marginBottom=0;swimlaneFillColor=#ffffff;align=center;rounded=1;shadow=0;comic=0;labelBackgroundColor=none;strokeWidth=1;fontFamily=Verdana;fontSize=12" vertex="1" parent="1">
          <mxGeometry x="197.5" y="40" width="160" height="60" as="geometry" />
        </mxCell>
        <mxCell id="EhshdQfCyrl62s5Rfig4-34" value="Quản lý thành viên" style="text;html=1;strokeColor=none;fillColor=none;spacingLeft=4;spacingRight=4;whiteSpace=wrap;overflow=hidden;rotatable=0;points=[[0,0.5],[1,0.5]];portConstraint=eastwest;align=center;" vertex="1" parent="EhshdQfCyrl62s5Rfig4-33">
          <mxGeometry y="30" width="160" height="26" as="geometry" />
        </mxCell>
        <mxCell id="EhshdQfCyrl62s5Rfig4-35" value="" style="endArrow=classic;html=1;rounded=0;" edge="1" parent="1">
          <mxGeometry relative="1" as="geometry">
            <mxPoint x="140" y="270" as="sourcePoint" />
            <mxPoint x="240" y="100" as="targetPoint" />
            <Array as="points">
              <mxPoint x="140" y="230" />
              <mxPoint x="240" y="230" />
            </Array>
          </mxGeometry>
        </mxCell>
        <mxCell id="EhshdQfCyrl62s5Rfig4-36" value="Yêu cầu cấp thẻ&amp;nbsp;" style="edgeLabel;resizable=0;html=1;align=center;verticalAlign=middle;" connectable="0" vertex="1" parent="EhshdQfCyrl62s5Rfig4-35">
          <mxGeometry relative="1" as="geometry" />
        </mxCell>
        <mxCell id="EhshdQfCyrl62s5Rfig4-37" value="" style="endArrow=classic;html=1;rounded=0;exitX=0.351;exitY=-0.01;exitDx=0;exitDy=0;exitPerimeter=0;entryX=-0.002;entryY=-0.023;entryDx=0;entryDy=0;entryPerimeter=0;" edge="1" parent="1" source="EhshdQfCyrl62s5Rfig4-13" target="EhshdQfCyrl62s5Rfig4-34">
          <mxGeometry relative="1" as="geometry">
            <mxPoint x="520" y="280" as="sourcePoint" />
            <mxPoint x="620" y="280" as="targetPoint" />
            <Array as="points">
              <mxPoint x="120" y="70" />
            </Array>
          </mxGeometry>
        </mxCell>
        <mxCell id="EhshdQfCyrl62s5Rfig4-38" value="Thông tin khách hàng" style="edgeLabel;resizable=0;html=1;align=center;verticalAlign=middle;" connectable="0" vertex="1" parent="EhshdQfCyrl62s5Rfig4-37">
          <mxGeometry relative="1" as="geometry" />
        </mxCell>
        <mxCell id="EhshdQfCyrl62s5Rfig4-39" value="" style="endArrow=classic;html=1;rounded=0;entryX=1;entryY=0.25;entryDx=0;entryDy=0;" edge="1" parent="1" target="EhshdQfCyrl62s5Rfig4-13">
          <mxGeometry relative="1" as="geometry">
            <mxPoint x="300" y="100" as="sourcePoint" />
            <mxPoint x="620" y="280" as="targetPoint" />
            <Array as="points">
              <mxPoint x="300" y="285" />
            </Array>
          </mxGeometry>
        </mxCell>
        <mxCell id="EhshdQfCyrl62s5Rfig4-40" value="Cấp thẻ" style="edgeLabel;resizable=0;html=1;align=center;verticalAlign=middle;" connectable="0" vertex="1" parent="EhshdQfCyrl62s5Rfig4-39">
          <mxGeometry relative="1" as="geometry" />
        </mxCell>
        <mxCell id="EhshdQfCyrl62s5Rfig4-41" value="" style="endArrow=classic;html=1;rounded=0;exitX=1.003;exitY=0.223;exitDx=0;exitDy=0;exitPerimeter=0;entryX=0.604;entryY=-0.1;entryDx=0;entryDy=0;entryPerimeter=0;" edge="1" parent="1" source="EhshdQfCyrl62s5Rfig4-34" target="21ea969265ad0168-30">
          <mxGeometry relative="1" as="geometry">
            <mxPoint x="520" y="80" as="sourcePoint" />
            <mxPoint x="620" y="80" as="targetPoint" />
            <Array as="points">
              <mxPoint x="380" y="76" />
            </Array>
          </mxGeometry>
        </mxCell>
        <mxCell id="EhshdQfCyrl62s5Rfig4-42" value="Thông tin thành viên" style="edgeLabel;resizable=0;html=1;align=center;verticalAlign=middle;" connectable="0" vertex="1" parent="EhshdQfCyrl62s5Rfig4-41">
          <mxGeometry relative="1" as="geometry" />
        </mxCell>
        <mxCell id="0MAC11lWHvuXaI_cLpDw-1" value="Nhà cung cấp." style="rounded=0;whiteSpace=wrap;html=1;" vertex="1" parent="1">
          <mxGeometry x="640" y="120" width="120" height="60" as="geometry" />
        </mxCell>
        <mxCell id="0MAC11lWHvuXaI_cLpDw-2" value="Khách hàng." style="rounded=0;whiteSpace=wrap;html=1;" vertex="1" parent="1">
          <mxGeometry x="200" y="120" width="120" height="60" as="geometry" />
        </mxCell>
        <mxCell id="0MAC11lWHvuXaI_cLpDw-3" value="Bộ phận quản lý." style="rounded=0;whiteSpace=wrap;html=1;" vertex="1" parent="1">
          <mxGeometry x="420" y="490" width="120" height="60" as="geometry" />
        </mxCell>
        <mxCell id="0MAC11lWHvuXaI_cLpDw-4" value="" style="endArrow=classic;html=1;rounded=0;exitX=1.03;exitY=0.65;exitDx=0;exitDy=0;entryX=0.25;entryY=0;entryDx=0;entryDy=0;exitPerimeter=0;" edge="1" parent="1" source="0MAC11lWHvuXaI_cLpDw-2">
          <mxGeometry relative="1" as="geometry">
            <mxPoint x="320" y="130" as="sourcePoint" />
            <mxPoint x="480" y="260" as="targetPoint" />
            <Array as="points">
              <mxPoint x="360" y="160" />
              <mxPoint x="360" y="200" />
              <mxPoint x="360" y="240" />
              <mxPoint x="440" y="240" />
            </Array>
          </mxGeometry>
        </mxCell>
        <mxCell id="0MAC11lWHvuXaI_cLpDw-5" value="Yêu cầu mua hàng" style="edgeLabel;resizable=0;html=1;align=center;verticalAlign=middle;" connectable="0" vertex="1" parent="0MAC11lWHvuXaI_cLpDw-4">
          <mxGeometry relative="1" as="geometry" />
        </mxCell>
        <mxCell id="0MAC11lWHvuXaI_cLpDw-8" value="" style="endArrow=classic;html=1;rounded=0;exitX=0.5;exitY=1;exitDx=0;exitDy=0;entryX=0;entryY=0.5;entryDx=0;entryDy=0;" edge="1" parent="1" source="0MAC11lWHvuXaI_cLpDw-2">
          <mxGeometry relative="1" as="geometry">
            <mxPoint x="480" y="280" as="sourcePoint" />
            <mxPoint x="580" y="280" as="targetPoint" />
            <Array as="points">
              <mxPoint x="260" y="319" />
            </Array>
          </mxGeometry>
        </mxCell>
        <mxCell id="0MAC11lWHvuXaI_cLpDw-9" value="Thông tin khách hàng" style="edgeLabel;resizable=0;html=1;align=center;verticalAlign=middle;" connectable="0" vertex="1" parent="0MAC11lWHvuXaI_cLpDw-8">
          <mxGeometry relative="1" as="geometry" />
        </mxCell>
        <mxCell id="0MAC11lWHvuXaI_cLpDw-10" value="" style="endArrow=classic;html=1;rounded=0;entryX=0;entryY=0.5;entryDx=0;entryDy=0;" edge="1" parent="1" target="0MAC11lWHvuXaI_cLpDw-2">
          <mxGeometry relative="1" as="geometry">
            <mxPoint x="400" y="340" as="sourcePoint" />
            <mxPoint x="190" y="330" as="targetPoint" />
            <Array as="points">
              <mxPoint x="240" y="340" />
              <mxPoint x="160" y="340" />
              <mxPoint x="160" y="150" />
            </Array>
          </mxGeometry>
        </mxCell>
        <mxCell id="0MAC11lWHvuXaI_cLpDw-11" value="Hóa đơn" style="edgeLabel;resizable=0;html=1;align=center;verticalAlign=middle;" connectable="0" vertex="1" parent="0MAC11lWHvuXaI_cLpDw-10">
          <mxGeometry relative="1" as="geometry" />
        </mxCell>
        <mxCell id="0MAC11lWHvuXaI_cLpDw-12" value="" style="endArrow=classic;html=1;rounded=0;" edge="1" parent="1">
          <mxGeometry relative="1" as="geometry">
            <mxPoint x="520" y="280" as="sourcePoint" />
            <mxPoint x="640" y="160" as="targetPoint" />
            <Array as="points">
              <mxPoint x="520" y="160" />
            </Array>
          </mxGeometry>
        </mxCell>
        <mxCell id="0MAC11lWHvuXaI_cLpDw-13" value="Yêu cầu nhập hàng" style="edgeLabel;resizable=0;html=1;align=center;verticalAlign=middle;" connectable="0" vertex="1" parent="0MAC11lWHvuXaI_cLpDw-12">
          <mxGeometry relative="1" as="geometry" />
        </mxCell>
        <mxCell id="0MAC11lWHvuXaI_cLpDw-14" value="" style="endArrow=classic;html=1;rounded=0;entryX=1;entryY=0.5;entryDx=0;entryDy=0;exitX=0.25;exitY=1;exitDx=0;exitDy=0;" edge="1" parent="1" source="0MAC11lWHvuXaI_cLpDw-1">
          <mxGeometry relative="1" as="geometry">
            <mxPoint x="480" y="380" as="sourcePoint" />
            <mxPoint x="580" y="380" as="targetPoint" />
            <Array as="points">
              <mxPoint x="670" y="320" />
            </Array>
          </mxGeometry>
        </mxCell>
        <mxCell id="0MAC11lWHvuXaI_cLpDw-15" value="Hóa đơn nhập hàng" style="edgeLabel;resizable=0;html=1;align=center;verticalAlign=middle;" connectable="0" vertex="1" parent="0MAC11lWHvuXaI_cLpDw-14">
          <mxGeometry relative="1" as="geometry" />
        </mxCell>
        <mxCell id="0MAC11lWHvuXaI_cLpDw-16" value="" style="endArrow=classic;html=1;rounded=0;exitX=0.5;exitY=1;exitDx=0;exitDy=0;entryX=0.5;entryY=0;entryDx=0;entryDy=0;" edge="1" parent="1" target="0MAC11lWHvuXaI_cLpDw-3">
          <mxGeometry relative="1" as="geometry">
            <mxPoint x="480" y="380" as="sourcePoint" />
            <mxPoint x="580" y="380" as="targetPoint" />
          </mxGeometry>
        </mxCell>
        <mxCell id="0MAC11lWHvuXaI_cLpDw-17" value="Báo cáo" style="edgeLabel;resizable=0;html=1;align=center;verticalAlign=middle;" connectable="0" vertex="1" parent="0MAC11lWHvuXaI_cLpDw-16">
          <mxGeometry relative="1" as="geometry" />
        </mxCell>
      </root>
    </mxGraphModel>
  </diagram>
</mxfile>
